<svg xmlns="http://www.w3.org/2000/svg" width="104" height="722" viewBox="0 0 104 722">
  <defs>
    <style>
      .cls-1 {
        fill: #fff;
        fill-rule: evenodd;
      }
    </style>
  </defs>
  <g id="Artboard_1" data-name="Artboard 1">
    <g>
      <path class="cls-1" d="M58.908,429.251a2.385,2.385,0,0,0-4.77,0v6.086h4.77v-6.086ZM52.8,426.362a2.385,2.385,0,0,0-4.771,0v8.975H52.8v-8.975ZM46.7,429.251a2.385,2.385,0,0,0-4.771,0v6.086H46.7v-6.086Zm18.318,2.461a2.385,2.385,0,0,0-4.77,0v3.625h4.769v-3.625h0Zm-18.423,21.44v-4.935a2.6,2.6,0,0,0-5.206,0v9.32c0,4.116,3.683,7.463,8.21,7.463h7.291c4.526,0,8.21-3.347,8.21-7.463v-3.248H46.591v-1.137ZM70.82,439.269V450.24H50.189v-2.624a6.1,6.1,0,0,0-6.2-5.822,6.2,6.2,0,0,0-6.233,5.822v2.624H36.177V439.269H70.82M73,437.111H34V452.4h5.932v-4.782a4.059,4.059,0,0,1,8.08,0V452.4H73V437.111h0Zm-11.974,5.4a3.206,3.206,0,0,0-.591-1.169,2.171,2.171,0,0,0-.867-0.628,3.036,3.036,0,0,0-2.093,0,2.137,2.137,0,0,0-.861.628,3.259,3.259,0,0,0-.585,1.169,6.341,6.341,0,0,0-.218,1.8,6.618,6.618,0,0,0,.218,1.84,3.193,3.193,0,0,0,.585,1.174,2.082,2.082,0,0,0,.861.63,3.005,3.005,0,0,0,2.093,0,2.12,2.12,0,0,0,.867-0.63,3.125,3.125,0,0,0,.591-1.174,6.645,6.645,0,0,0,.216-1.84A6.39,6.39,0,0,0,61.023,442.515Zm-1.306,2.554a4.154,4.154,0,0,1-.132.86,1.8,1.8,0,0,1-.36.708,0.892,0.892,0,0,1-.713.292,0.854,0.854,0,0,1-.7-0.292,1.866,1.866,0,0,1-.356-0.708,3.979,3.979,0,0,1-.13-0.86c-0.014-.294-0.022-0.549-0.022-0.758,0-.125,0-0.279.005-0.457s0.017-.36.037-0.549a3.9,3.9,0,0,1,.106-0.561,1.872,1.872,0,0,1,.206-0.5A1.1,1.1,0,0,1,58,441.892a0.9,0.9,0,0,1,.512-0.138,0.934,0.934,0,0,1,.518.138,1.125,1.125,0,0,1,.349.355,1.736,1.736,0,0,1,.207.5,4.987,4.987,0,0,1,.105.561,5.143,5.143,0,0,1,.042.549c0,0.178.006,0.332,0.006,0.457C59.739,444.52,59.733,444.775,59.718,445.069Zm7.708-2.554a3.194,3.194,0,0,0-.591-1.169,2.165,2.165,0,0,0-.867-0.628,3.033,3.033,0,0,0-2.092,0,2.129,2.129,0,0,0-.861.628,3.226,3.226,0,0,0-.587,1.169,6.385,6.385,0,0,0-.218,1.8,6.663,6.663,0,0,0,.218,1.84,3.15,3.15,0,0,0,.587,1.174,2.077,2.077,0,0,0,.861.63,3,3,0,0,0,2.092,0,2.115,2.115,0,0,0,.867-0.63,3.112,3.112,0,0,0,.591-1.174,6.629,6.629,0,0,0,.218-1.84A6.375,6.375,0,0,0,67.425,442.515Zm-1.3,2.554a3.951,3.951,0,0,1-.133.86,1.792,1.792,0,0,1-.359.708,0.889,0.889,0,0,1-.713.292,0.853,0.853,0,0,1-.7-0.292,1.843,1.843,0,0,1-.355-0.708,3.993,3.993,0,0,1-.131-0.86c-0.014-.294-0.021-0.549-0.021-0.758,0-.125,0-0.279.005-0.457s0.016-.36.035-0.549a4.126,4.126,0,0,1,.108-0.561,1.932,1.932,0,0,1,.205-0.5,1.1,1.1,0,0,1,.339-0.355,0.9,0.9,0,0,1,.512-0.138,0.937,0.937,0,0,1,.518.138,1.154,1.154,0,0,1,.349.355,1.67,1.67,0,0,1,.2.5,5.088,5.088,0,0,1,.108.561c0.023,0.189.037,0.373,0.041,0.549s0.006,0.332.006,0.457C66.142,444.52,66.135,444.775,66.121,445.069Zm-15.129-2.936a3.434,3.434,0,0,0,.758-0.059,1.967,1.967,0,0,0,.656-0.24,1.633,1.633,0,0,0,.49-0.455,1.612,1.612,0,0,0,.264-0.7h1.2v7.329h-1.5v-4.752H50.993v-1.121Z"/>
      <path class="cls-1" d="M58.305,545.064H54.739v-4.306a0.892,0.892,0,1,0-1.783,0v5.208a0.893,0.893,0,0,0,.891.9h4.457a0.893,0.893,0,0,0,.891-0.9A0.963,0.963,0,0,0,58.305,545.064Zm13.075-4.206A18.376,18.376,0,0,0,48.8,527.639a18.791,18.791,0,0,0-5.25,33.85L38.693,569l19.513-5.208A18.833,18.833,0,0,0,71.38,540.858ZM53.848,554.679a9.215,9.215,0,1,1,9.113-9.214A9.2,9.2,0,0,1,53.848,554.679Z"/>
      <path class="cls-1" d="M80.377,319H27.682A1.674,1.674,0,0,0,26,320.68v39.64A1.674,1.674,0,0,0,27.682,362H80.314A1.674,1.674,0,0,0,82,360.32V320.742A1.637,1.637,0,0,0,80.377,319Zm-1.744,39.64H29.426V322.422H78.695L78.633,358.64h0ZM59.137,333H72.528a1.68,1.68,0,1,0,0-3.36H59.137a1.674,1.674,0,0,0-1.682,1.68A1.715,1.715,0,0,0,59.137,333Zm0,8.339H72.528a1.68,1.68,0,1,0,0-3.36H59.137A1.68,1.68,0,1,0,59.137,341.34Zm0,8.4H72.528a1.68,1.68,0,1,0,0-3.36H59.137A1.68,1.68,0,1,0,59.137,349.741Zm-23.918,3.983h17.5a1.674,1.674,0,0,0,1.682-1.68L54.528,348v-0.062A10.511,10.511,0,0,0,48.8,338.6a7.108,7.108,0,0,0,2.429-5.352,7.163,7.163,0,0,0-14.326,0,7.108,7.108,0,0,0,2.429,5.352,10.469,10.469,0,0,0-5.73,9.335v4.045A1.6,1.6,0,0,0,35.219,353.724ZM44,329.579a3.813,3.813,0,0,1,3.8,3.8,3.8,3.8,0,0,1-7.6,0A3.813,3.813,0,0,1,44,329.579ZM36.9,348a7.1,7.1,0,0,1,14.2,0l-0.062,2.365H36.9V348Z"/>
      <path class="cls-1" d="M84,146.29v5.685H43.846V146.29a4.083,4.083,0,0,1,1.5-3.12,64.753,64.753,0,0,1,10.34-6.858,78.346,78.346,0,0,0,3.918,7.981,0.2,0.2,0,0,0,.36-0.05c0.36-1.054,1.465-3.787,3.1-3.65a0.144,0.144,0,0,0,.087-0.256,54.3,54.3,0,0,1-5.881-5.248v-3.744a9.245,9.245,0,0,1-1.143-3.12c-0.435-.038-1.012-0.624-1.633-2.852-0.782-2.777-.075-3.37.621-3.382-0.068-.243-0.124-0.481-0.168-0.724h0a8.842,8.842,0,0,1,0-3.962,8.628,8.628,0,0,1,2.3-4.057,11.11,11.11,0,0,1,2.13-1.766,8.289,8.289,0,0,1,2.068-1.073h0a6.807,6.807,0,0,1,1.863-.362,7.721,7.721,0,0,1,4.719.986,5.879,5.879,0,0,1,2.3,2.147s3.813,0.274,2.527,8.056c-0.043.237-.1,0.48-0.168,0.717,0.72,0,1.466.568,0.671,3.389-0.621,2.2-1.192,2.814-1.633,2.852a9.238,9.238,0,0,1-1.143,3.12v3.744a55.092,55.092,0,0,1-5.881,5.248,0.144,0.144,0,0,0-.023.2,0.146,0.146,0,0,0,.11.054c1.627-.138,2.726,2.6,3.105,3.65a0.205,0.205,0,0,0,.262.125,0.2,0.2,0,0,0,.1-0.075,78.3,78.3,0,0,0,3.918-7.981A64.757,64.757,0,0,1,82.5,143.145,4.083,4.083,0,0,1,84,146.29Zm-42.973,0a6.822,6.822,0,0,1,2.484-5.279c0.745-.624,1.49-1.2,2.236-1.747a1.349,1.349,0,0,1-.2-0.712v-1.747h0v-0.586s5.21,0.162,7.682-2.378c0,0-3.6-1.023-2.95-7.607s-0.807-12.362-6.073-11.856c0,0-2.285-2.758-6.831-1.024-1.559.624-5.744,2.1-5.533,11.233s-3.235,9.148-3.235,9.148,1.8,2.59,7.793,2.54v2.277a1.343,1.343,0,0,1-.621,1.13l-0.13.081a38.51,38.51,0,0,1-5.657,2,19.788,19.788,0,0,0-3.558,1.354A4.311,4.311,0,0,0,24,146.6V152H41.033Z"/>
      <path class="cls-1" d="M75,225.565v25.458A5.952,5.952,0,0,1,69.077,257H38.922A5.952,5.952,0,0,1,33,251.023V225.565a5.952,5.952,0,0,1,5.923-5.976h2v5.821a4.308,4.308,0,1,0,8.616,0v-5.821h9.385v5.821a4.308,4.308,0,1,0,8.616,0v-5.821h1.615A5.937,5.937,0,0,1,75,225.565Zm-1.769,4.968H34.768v20.49a4.155,4.155,0,0,0,4.154,4.191H69.077a4.155,4.155,0,0,0,4.154-4.191v-20.49Zm-28-2.484a2.605,2.605,0,0,0,2.615-2.639v-8.77a2.616,2.616,0,1,0-5.231,0v8.77A2.605,2.605,0,0,0,45.23,228.049Zm18,0a2.605,2.605,0,0,0,2.616-2.639v-8.77a2.616,2.616,0,1,0-5.231,0v8.77A2.559,2.559,0,0,0,63.231,228.049Zm0.385,8.072a2.031,2.031,0,0,0-2.846,0l-9.385,9.391-4.154-4.191a2.031,2.031,0,0,0-2.846,0,2.076,2.076,0,0,0,0,2.872l5.539,5.588a1.854,1.854,0,0,0,2.769,0l10.77-10.866A1.861,1.861,0,0,0,63.615,236.121Z"/>
      <path class="cls-1" d="M54,6A26.024,26.024,0,0,0,28,32.248a1.733,1.733,0,1,0,3.467,0,22.534,22.534,0,1,1,45.067,0,1.733,1.733,0,1,0,3.467,0A26.024,26.024,0,0,0,54,6ZM52.267,16.72a15.6,15.6,0,1,0,3.467,0V32.251a1.733,1.733,0,1,1-3.467,0V16.72Z"/>
      <path class="cls-1" d="M73.178,668.22L62.484,657.526a16.828,16.828,0,1,0-3.959,3.959l10.694,10.694A2.8,2.8,0,1,0,73.178,668.22ZM48.8,659A11.2,11.2,0,1,1,60,647.8,11.2,11.2,0,0,1,48.8,659Z"/>
    </g>
  </g>
</svg>
